# xmcd
#
# Track frame offsets:
#	182
#	13745
#	29627
#	45225
#	60112
#	79345
#	93622
#	111490
#	123260
#	134097
#
# Disc length: 1954 seconds
#
# Revision: 0
# Processed by: cddbd v1.4PL0 Copyright (c) Steve Scherf et al.
# Submitted via: audiograbber 1.81.03
#
DISCID=8507a00a
DTITLE=Chris`LeDoux - Western Underground
DYEAR=1991
DGENRE=Country
TTITLE0=County Fair
TTITLE1=Riding For A Fall
TTITLE2=Thank The Cowboy For The Ride
TTITLE3=Cadillac Cowboy
TTITLE4=This Cowboy's Hat
TTITLE5=Shot Full Of Love
TTITLE6=The`Last Drive In
TTITLE7=Yellow Brick Road Turns Blue
TTITLE8=Settin The Woods On Fire
TTITLE9=Workin Man's Dollar
EXTD=
EXTT0=
EXTT1=
EXTT2=
EXTT3=
EXTT4=
EXTT5=
EXTT6=
EXTT7=
EXTT8=
EXTT9=
PLAYORDER=
